<svg width="20" height="20" viewBox="0 0 20 20" fill="none" xmlns="http://www.w3.org/2000/svg">
<g clip-path="url(#clip0_33_41)">
<path d="M20 15.49C19.7089 15.6001 19.3876 15.5999 19.0967 15.4893C18.8058 15.3788 18.5654 15.1656 18.4208 14.89L15.5458 10.9142L15.1292 10.3583L11.7933 14.895C11.6575 15.1591 11.4301 15.3646 11.1538 15.4732C10.8774 15.5818 10.5709 15.586 10.2917 15.485L14.59 9.71834L10.5917 4.50918C10.8792 4.40557 11.1936 4.4042 11.482 4.50529C11.7704 4.60637 12.0151 4.80375 12.175 5.06418L15.155 9.08918L18.1517 5.08084C18.2886 4.8215 18.516 4.6215 18.7907 4.51887C19.0654 4.41623 19.3683 4.41812 19.6417 4.52418L18.09 6.58334L15.9883 9.31918C15.93 9.37124 15.8833 9.43505 15.8513 9.50643C15.8193 9.5778 15.8028 9.65513 15.8028 9.73334C15.8028 9.81155 15.8193 9.88888 15.8513 9.96026C15.8833 10.0316 15.93 10.0954 15.9883 10.1475L19.9917 15.4908L20 15.49ZM0.00167666 9.64668L0.351677 7.91751C1.31334 4.49834 5.23334 3.07584 7.93001 5.19251C9.50918 6.43334 9.90334 8.19001 9.82584 10.17H0.93001C0.785843 13.7058 3.33751 15.8408 6.60001 14.75C7.12889 14.5596 7.60229 14.241 7.97781 13.8228C8.35332 13.4045 8.61922 12.8996 8.75168 12.3533C8.92418 11.7983 9.20834 11.7033 9.73001 11.8633C9.64308 12.5403 9.40377 13.1888 9.03007 13.7599C8.65637 14.3311 8.15802 14.8101 7.57251 15.1608C6.60536 15.6899 5.4957 15.8995 4.4022 15.7599C3.30869 15.6203 2.28734 15.1384 1.48418 14.3833C0.690034 13.4895 0.210073 12.3604 0.11751 11.1683C0.11751 10.9725 0.0508433 10.7892 0.00584333 10.6133C0.00178669 10.2914 -0.000157798 9.96946 9.9969e-06 9.64751L0.00167666 9.64668ZM0.940843 9.40834H8.98584C8.93584 6.84501 7.31834 5.02668 5.16084 5.01001C2.75918 4.97668 1.04084 6.75501 0.93501 9.39668L0.940843 9.40834Z" fill="black"/>
</g>
<defs>
<clipPath id="clip0_33_41">
<rect width="20" height="20" fill="white"/>
</clipPath>
</defs>
</svg>
