<svg width="20" height="20" viewBox="0 0 20 20" fill="none" xmlns="http://www.w3.org/2000/svg">
<g clip-path="url(#clip0_37_1645)">
<path d="M0 0H20V20H0V0ZM18.3617 15.23C18.2158 14.3175 17.6217 13.5508 15.8592 12.8358C15.2458 12.5483 14.5642 12.3483 14.3617 11.8858C14.2858 11.6108 14.2742 11.4608 14.3233 11.2983C14.4483 10.76 15.0858 10.5983 15.5858 10.7483C15.9108 10.8483 16.2108 11.0983 16.3992 11.4983C17.2608 10.935 17.2608 10.935 17.8617 10.5608C17.6367 10.2108 17.525 10.06 17.3733 9.91083C16.8483 9.32333 16.1492 9.02333 15.0117 9.04917L14.4242 9.12333C13.8608 9.26083 13.3242 9.56083 12.9992 9.96083C12.0492 11.0367 12.3233 12.9117 13.4733 13.6867C14.6108 14.5367 16.2742 14.7233 16.4867 15.5242C16.6867 16.4992 15.7617 16.8117 14.8483 16.6992C14.1725 16.5492 13.7983 16.2108 13.3858 15.5858L11.8608 16.4617C12.0358 16.8617 12.2358 17.0358 12.5358 17.3858C13.9858 18.8492 17.6108 18.7742 18.2617 16.5492C18.2858 16.4742 18.4617 15.9617 18.3233 15.1742L18.3617 15.23ZM10.8758 9.1925H9.0025C9.0025 10.8075 8.995 12.4125 8.995 14.03C8.995 15.0567 9.0475 15.9992 8.88 16.2892C8.605 16.8633 7.89667 16.79 7.575 16.6892C7.245 16.5258 7.0775 16.3008 6.88333 15.9767C6.83083 15.8892 6.79167 15.8133 6.7775 15.8133L5.25667 16.7508C5.51083 17.2758 5.88167 17.7275 6.36 18.015C7.0725 18.44 8.03 18.5775 9.0325 18.3525C9.685 18.1642 10.2475 17.7767 10.5417 17.1767C10.9667 16.4017 10.8767 15.4517 10.8725 14.3883C10.8825 12.6767 10.8725 10.9642 10.8725 9.23917L10.8758 9.1925Z" fill="#F7DF1E"/>
</g>
<defs>
<clipPath id="clip0_37_1645">
<rect width="20" height="20" fill="white"/>
</clipPath>
</defs>
</svg>
