<svg width="20" height="20" viewBox="0 0 20 20" fill="none" xmlns="http://www.w3.org/2000/svg">
<g clip-path="url(#clip0_33_36)">
<path d="M9.99826 20C9.73076 20 9.46409 19.93 9.22993 19.7942L6.78326 18.3467C6.41826 18.1425 6.59659 18.07 6.71659 18.0275C7.20409 17.8583 7.30242 17.8192 7.82326 17.5242C7.87742 17.4933 7.94909 17.505 8.00493 17.5383L9.88493 18.6542C9.95326 18.6917 10.0491 18.6917 10.1116 18.6542L17.4408 14.4242C17.5091 14.385 17.5524 14.3067 17.5524 14.2258V5.76749C17.5524 5.68499 17.5083 5.60749 17.4383 5.56583L10.1124 1.33916C10.0449 1.29999 9.95493 1.29999 9.88659 1.33916L2.56243 5.56666C2.49159 5.60749 2.44659 5.68749 2.44659 5.76749V14.2258C2.44659 14.3067 2.49159 14.3833 2.56243 14.4217L4.56993 15.5817C5.65909 16.1267 6.32659 15.485 6.32659 14.84V6.48916C6.32659 6.37083 6.42159 6.27833 6.53992 6.27833H7.46909C7.58493 6.27833 7.68159 6.37166 7.68159 6.48916V14.84C7.68159 16.2942 6.88992 17.1275 5.51159 17.1275C5.08826 17.1275 4.75409 17.1275 3.82326 16.6683L1.89993 15.5625C1.42493 15.2883 1.13159 14.775 1.13159 14.2258V5.76749C1.13159 5.21833 1.42576 4.70499 1.89993 4.43166L9.22909 0.196661C9.69326 -0.0658386 10.3091 -0.0658386 10.7691 0.196661L18.0974 4.43166C18.5724 4.70583 18.8674 5.21833 18.8674 5.76749V14.2258C18.8674 14.775 18.5724 15.2867 18.0974 15.5625L10.7691 19.7942C10.5358 19.93 10.2699 20 9.99826 20ZM15.9158 11.6608C15.9158 10.0775 14.8458 9.65583 12.5933 9.35833C10.3174 9.05749 10.0858 8.90166 10.0858 8.36916C10.0858 7.92916 10.2816 7.34166 11.9674 7.34166C13.4733 7.34166 14.0283 7.66583 14.2566 8.68083C14.2766 8.77666 14.3641 8.84666 14.4624 8.84666H15.4133C15.4724 8.84666 15.5283 8.82083 15.5683 8.77916C15.6083 8.73416 15.6299 8.67666 15.6241 8.61583C15.4766 6.86749 14.3149 6.05249 11.9674 6.05249C9.87743 6.05249 8.63076 6.93416 8.63076 8.41333C8.63076 10.0175 9.87076 10.4608 11.8766 10.6592C14.2766 10.8942 14.4624 11.245 14.4624 11.7167C14.4624 12.5358 13.8049 12.885 12.2608 12.885C10.3216 12.885 9.89493 12.3983 9.75159 11.4333C9.73493 11.33 9.64659 11.2542 9.54076 11.2542H8.59326C8.47576 11.2542 8.38159 11.3475 8.38159 11.465C8.38159 12.7 9.05326 14.1717 12.2608 14.1717C14.5841 14.1725 15.9158 13.2583 15.9158 11.6608Z" fill="#5FA04E"/>
</g>
<defs>
<clipPath id="clip0_33_36">
<rect width="20" height="20" fill="white"/>
</clipPath>
</defs>
</svg>
