<svg width="33" height="33" viewBox="0 0 33 33" fill="none" xmlns="http://www.w3.org/2000/svg">
<path d="M33 0.315674V15.0445H27.9231V8.68653L13.7331 22.4088L10.1538 18.9476L24.3438 5.22527H17.7692V0.315674H33ZM22.8462 24.8636C22.8462 25.5147 22.5787 26.1391 22.1027 26.5994C21.6266 27.0598 20.9809 27.3184 20.3077 27.3184H7.61538C6.94214 27.3184 6.29648 27.0598 5.82042 26.5994C5.34437 26.1391 5.07692 25.5147 5.07692 24.8636V12.5897C5.07692 11.9386 5.34437 11.3142 5.82042 10.8539C6.29648 10.3935 6.94214 10.1349 7.61538 10.1349H12.6923V5.22527H7.61538C5.59566 5.22527 3.65866 6.00116 2.23049 7.38225C0.802333 8.76334 0 10.6365 0 12.5897V24.8636C0 26.8168 0.802333 28.69 2.23049 30.071C3.65866 31.4521 5.59566 32.228 7.61538 32.228H20.3077C22.3274 32.228 24.2644 31.4521 25.6926 30.071C27.1207 28.69 27.9231 26.8168 27.9231 24.8636V19.954H22.8462V24.8636Z" fill="white"/>
</svg>
