<svg width="20" height="20" viewBox="0 0 20 20" fill="none" xmlns="http://www.w3.org/2000/svg">
<g clip-path="url(#clip0_37_1649)">
<path d="M0.9375 0C0.418333 0 0 0.418333 0 0.9375V19.0625C0 19.5817 0.418333 20 0.9375 20H19.0625C19.5817 20 20 19.5817 20 19.0625V0.9375C20 0.418333 19.5817 0 19.0625 0H0.9375ZM15.4067 8.125C15.9167 8.125 16.3683 8.15583 16.7625 8.2175C17.1343 8.2732 17.4991 8.36818 17.8508 8.50083V10.5492C17.682 10.4324 17.5026 10.3317 17.315 10.2483C17.1215 10.1613 16.9218 10.0889 16.7175 10.0317C16.3305 9.92383 15.9309 9.86778 15.5292 9.865C15.2792 9.865 15.0517 9.88833 14.8467 9.93667C14.664 9.97574 14.4887 10.0438 14.3275 10.1383C14.1858 10.225 14.0775 10.3292 14 10.45C13.9221 10.5718 13.8815 10.7137 13.8833 10.8583C13.8833 11.0217 13.9275 11.1692 14.0133 11.2992C14.1 11.4292 14.2233 11.5525 14.3825 11.6692C14.5417 11.7858 14.735 11.8992 14.9625 12.0108C15.19 12.1233 15.4475 12.2392 15.7342 12.3575C16.1258 12.5217 16.4775 12.6967 16.7892 12.8808C17.1008 13.0658 17.3683 13.275 17.5917 13.5083C17.815 13.7408 17.985 14.0067 18.1033 14.3058C18.2217 14.605 18.2817 14.9525 18.2817 15.35C18.2817 15.8975 18.1775 16.3583 17.9708 16.73C17.7689 17.0966 17.4791 17.4072 17.1275 17.6342C16.7485 17.8745 16.3284 18.0429 15.8883 18.1308C15.4167 18.2308 14.9192 18.2808 14.3967 18.2808C13.8824 18.2831 13.3691 18.2373 12.8633 18.1442C12.4258 18.0685 12.0014 17.9301 11.6033 17.7333V15.5417C12.3565 16.1826 13.3119 16.5368 14.3008 16.5417C14.5783 16.5417 14.8208 16.5167 15.0275 16.4667C15.235 16.4167 15.4075 16.3467 15.5467 16.2583C15.685 16.1683 15.7883 16.0633 15.8575 15.9417C15.9339 15.8 15.9687 15.6396 15.9578 15.479C15.9469 15.3184 15.8907 15.1642 15.7958 15.0342C15.672 14.8703 15.5206 14.7293 15.3483 14.6175C15.1347 14.4759 14.9098 14.3521 14.6758 14.2475C14.3985 14.1209 14.1188 13.9997 13.8367 13.8842C13.0717 13.565 12.5017 13.1742 12.1258 12.7133C11.7508 12.2525 11.5625 11.695 11.5625 11.0425C11.5625 10.5308 11.665 10.0917 11.87 9.72417C12.075 9.35667 12.3533 9.05417 12.7067 8.81667C13.0804 8.57012 13.4953 8.39259 13.9317 8.2925C14.415 8.17855 14.9101 8.12232 15.4067 8.125ZM2.8125 8.28167H10.7817V10.0867H7.92167V18.125H5.6575V10.0867H2.8125V8.28167Z" fill="#3178C6"/>
</g>
<defs>
<clipPath id="clip0_37_1649">
<rect width="20" height="20" fill="white"/>
</clipPath>
</defs>
</svg>
