<svg width="20" height="20" viewBox="0 0 20 20" fill="none" xmlns="http://www.w3.org/2000/svg">
<g clip-path="url(#clip0_33_45)">
<path d="M6.90504 8.81499L7.3317 1.60083C7.3351 1.54438 7.35716 1.49066 7.39442 1.44812C7.43168 1.40558 7.48203 1.37663 7.53754 1.36583L14.4809 0.00499291C14.5238 -0.00342819 14.5681 -0.000687624 14.6096 0.0129516C14.6511 0.0265909 14.6884 0.0506711 14.718 0.0828818C14.7475 0.115092 14.7683 0.154353 14.7782 0.196895C14.7882 0.239437 14.7871 0.283834 14.775 0.325826L13.4767 4.82833C13.4647 4.87024 13.4636 4.91454 13.4735 4.957C13.4835 4.99945 13.5042 5.03865 13.5336 5.07083C13.563 5.10302 13.6002 5.12712 13.6416 5.14083C13.683 5.15454 13.7272 5.15741 13.77 5.14916L15.76 4.76583C15.8069 4.75667 15.8553 4.76083 15.8999 4.77784C15.9445 4.79485 15.9834 4.82403 16.0122 4.86205C16.041 4.90007 16.0586 4.94542 16.0629 4.99293C16.0673 5.04044 16.0582 5.08822 16.0367 5.13083L10.3784 16.4225L10.2759 16.5808C10.2538 16.6167 10.2229 16.6462 10.1862 16.6667C10.1494 16.6871 10.1079 16.6977 10.0659 16.6975C9.91837 16.6975 9.7742 16.5708 9.8117 16.39L10.7242 11.9725C10.7332 11.9292 10.7307 11.8844 10.7171 11.8423C10.7035 11.8003 10.6792 11.7625 10.6466 11.7327C10.614 11.7028 10.5742 11.682 10.5312 11.6722C10.4881 11.6624 10.4432 11.6639 10.4009 11.6767L9.2067 12.0392C9.16443 12.052 9.11952 12.0537 9.07641 12.044C9.03329 12.0343 8.99343 12.0136 8.96074 11.9838C8.92805 11.9541 8.90366 11.9164 8.88995 11.8743C8.87624 11.8323 8.87368 11.7875 8.88254 11.7442L9.45754 8.93166C9.46625 8.88967 9.46424 8.84616 9.45168 8.80515C9.43912 8.76414 9.41642 8.72696 9.38569 8.69706C9.35495 8.66715 9.31716 8.64548 9.27583 8.63405C9.23449 8.62261 9.19094 8.62179 9.1492 8.63166L7.21587 9.07833C7.17728 9.08719 7.13717 9.08695 7.09869 9.07762C7.06021 9.06829 7.02444 9.05013 6.9942 9.02458C6.96396 8.99903 6.94008 8.96679 6.92446 8.93041C6.90884 8.89403 6.9019 8.85452 6.9042 8.81499H6.90504ZM19.385 2.20999L14.4034 3.11666L13.95 4.68916L15.6809 4.35583C15.815 4.32909 15.9541 4.34425 16.0793 4.39926C16.2046 4.45427 16.3098 4.54646 16.3809 4.66333C16.4412 4.76052 16.4755 4.8716 16.4804 4.98587C16.4854 5.10014 16.4609 5.21377 16.4092 5.31583L10.75 16.6083L10.7392 16.6292L10.7267 16.6483L10.625 16.8067C10.5649 16.9008 10.4822 16.9784 10.3843 17.0322C10.2865 17.0861 10.1767 17.1146 10.065 17.115C9.96389 17.1144 9.86411 17.0916 9.77279 17.0481C9.68148 17.0046 9.60087 16.9415 9.5367 16.8633C9.47429 16.7861 9.42993 16.6958 9.40687 16.5992C9.3838 16.5026 9.3826 16.4021 9.40337 16.305L10.2609 12.1542L9.32754 12.4375C9.19987 12.4759 9.06368 12.4757 8.93613 12.4369C8.80859 12.398 8.69541 12.3223 8.61087 12.2192C8.54784 12.1422 8.50279 12.0521 8.479 11.9555C8.45522 11.8589 8.45329 11.7583 8.47337 11.6608L8.99837 9.09416L7.3092 9.48416C7.19485 9.51035 7.07565 9.50621 6.96339 9.47216C6.85113 9.4381 6.74972 9.3753 6.6692 9.28999C6.60678 9.22323 6.55857 9.1445 6.52748 9.05855C6.4964 8.9726 6.48309 8.88124 6.48837 8.78999L6.81254 3.31499L0.612536 2.20666C0.51701 2.18942 0.418548 2.1998 0.328717 2.23658C0.238886 2.27336 0.161417 2.33502 0.105411 2.4143C0.0494057 2.49358 0.0171892 2.5872 0.0125467 2.68416C0.00790409 2.78112 0.0310282 2.87739 0.0792026 2.96166L9.65004 19.7425C9.69475 19.821 9.75952 19.8863 9.83774 19.9316C9.91595 19.9769 10.0048 20.0005 10.0952 20.0002C10.1856 19.9999 10.2742 19.9755 10.3521 19.9296C10.43 19.8838 10.4943 19.818 10.5384 19.7392L19.9217 2.95999C19.9687 2.87557 19.9908 2.77952 19.9854 2.68303C19.9799 2.58655 19.9472 2.49359 19.8909 2.415C19.8347 2.33641 19.7573 2.27541 19.6677 2.23912C19.5782 2.20282 19.4801 2.19272 19.385 2.20999Z" fill="#646CFF"/>
</g>
<defs>
<clipPath id="clip0_33_45">
<rect width="20" height="20" fill="white"/>
</clipPath>
</defs>
</svg>
