<svg width="278" height="278" viewBox="0 0 278 278" fill="none" xmlns="http://www.w3.org/2000/svg">
<path d="M207.378 59.5906L214.111 65.2599" stroke="#0291AD" stroke-width="5" stroke-linecap="round"/>
<path d="M171.237 48.9607L176.197 51.7953" stroke="#02B0B9" stroke-width="7" stroke-linecap="round"/>
<path d="M149.977 44L152.812 44.7087" stroke="#0BACA7" stroke-width="7" stroke-linecap="round"/>
<path d="M227.571 78.0159L232.182 83.6852" stroke="#0286A6" stroke-width="5" stroke-linecap="round"/>
<path d="M237.706 92.1892L240.19 95.7325" stroke="#4FBEC0" stroke-width="5" stroke-linecap="round"/>
<path d="M251.26 119.118L251.316 124.788" stroke="#4FBEC0" stroke-width="5" stroke-linecap="round"/>
<path d="M251.26 136.126L251.316 147.465" stroke="#4FBEC0" stroke-width="5" stroke-linecap="round"/>
<path d="M240.361 177.229L237.273 182.19" stroke="url(#paint0_linear_194_19)" stroke-width="5" stroke-linecap="round"/>
<path d="M176.597 214.833L171.429 217.561" stroke="url(#paint1_linear_194_19)" stroke-width="5" stroke-linecap="round"/>
<path d="M149.534 206.755L148.559 206.772" stroke="#7C7F80" stroke-width="2" stroke-linecap="round"/>
<path d="M143.156 203.92L142.181 203.938" stroke="#7C7F80" stroke-width="2" stroke-linecap="round"/>
<path d="M116.128 202.806L114.543 201.323" stroke="#A49285" stroke-width="2" stroke-linecap="round"/>
<path d="M150.686 217.623L149.8 217.784C142.61 219.091 135.316 219.749 128.008 219.749V219.749" stroke="#B45621" stroke-width="5" stroke-linecap="round"/>
<path d="M112.417 226.326V226.326C110.061 225.935 107.739 225.353 105.477 224.586L105.331 224.537" stroke="#A84B17" stroke-width="5" stroke-linecap="round"/>
<path d="M83.3623 217.327L77.1981 213.938L70.6064 209.531" stroke="#B2602C" stroke-width="5" stroke-linecap="round"/>
<path d="M41.8428 168.725L40.694 166.174L39.7168 163.213" stroke="#CC5611" stroke-width="8" stroke-linecap="round"/>
<path d="M32.7451 146.286L32.4351 139.902L32.423 132.583" stroke="#CF570E" stroke-width="5" stroke-linecap="round"/>
<path d="M32.3335 110.536L34.1323 106.93L36.4684 103" stroke="#D38440" stroke-width="5" stroke-linecap="round"/>
<path d="M43.1392 91.9659L47.7477 86.7477L53.2823 81" stroke="#DC8B3E" stroke-width="5" stroke-linecap="round"/>
<path d="M63.3521 73.463L68.1421 70.6636L73.7801 67.7642" stroke="#DC8B3E" stroke-width="5" stroke-linecap="round"/>
<path d="M101.079 51.0867V51.0867C101.55 51.0445 102.026 51.0443 102.496 51.0867V51.0867" stroke="#935721" stroke-width="5" stroke-linecap="round"/>
<path d="M137.379 59.5906L144.071 61.0777L149.376 62.4423" stroke="#086193" stroke-width="5" stroke-linecap="round"/>
<path d="M115.096 59.4246L116.571 59.7523L117.74 60.0531" stroke="#7C7F80" stroke-width="5" stroke-linecap="round"/>
<path d="M164.047 71.1182L164.068 71.1416C164.404 71.5205 164.705 71.9296 164.967 72.3635V72.3635" stroke="#086193" stroke-width="8" stroke-linecap="round"/>
<path d="M41.5513 114.866L42.0203 113.138L42.7679 111.323" stroke="#285F79" stroke-width="5" stroke-linecap="round"/>
<path d="M55.7246 189.276L55.7239 189.33L55.7246 189.393" stroke="#CC5611" stroke-width="8" stroke-linecap="round"/>
<path d="M249.862 158.804L248.481 161.638" stroke="#4FBEC0" stroke-width="5" stroke-linecap="round"/>
<g filter="url(#filter0_d_194_19)">
<path d="M186.852 97.012V59.4666L201.412 70.3723C227.93 90.2354 240.149 123.93 232.526 156.174L230.309 162.681C218.05 198.647 175.035 213.227 143.434 192.128C128.953 182.46 120.257 166.198 120.257 148.786V142.142H115.376V119.008L165.583 118.25L165.932 142.142L146.756 142.522L147.739 148.727C150.709 167.462 171.005 177.933 187.994 169.495C209.445 158.841 215.281 130.927 199.895 112.572L186.852 97.012Z" fill="url(#paint2_linear_194_19)"/>
</g>
<g filter="url(#filter1_d_194_19)">
<path d="M103.32 209.306L102.39 177.45L89.8622 168.422C81.4607 162.369 75.9552 153.093 74.6643 142.819C70.8363 112.349 106.302 92.9406 129.902 112.59L137 118.5L164.573 118.41L164.203 117.336C152.159 82.3112 111.405 66.6608 79.0136 84.6216L76.788 85.8557C49.2361 101.133 37.5727 134.681 49.705 163.755C58.6996 185.311 76.9671 201.637 99.3935 208.163L103.32 209.306Z" fill="url(#paint3_linear_194_19)"/>
</g>
<defs>
<filter id="filter0_d_194_19" x="111.376" y="59.4666" width="127.388" height="150.426" filterUnits="userSpaceOnUse" color-interpolation-filters="sRGB">
<feFlood flood-opacity="0" result="BackgroundImageFix"/>
<feColorMatrix in="SourceAlpha" type="matrix" values="0 0 0 0 0 0 0 0 0 0 0 0 0 0 0 0 0 0 127 0" result="hardAlpha"/>
<feOffset dy="4"/>
<feGaussianBlur stdDeviation="2"/>
<feComposite in2="hardAlpha" operator="out"/>
<feColorMatrix type="matrix" values="0 0 0 0 0 0 0 0 0 0 0 0 0 0 0 0 0 0 0.25 0"/>
<feBlend mode="normal" in2="BackgroundImageFix" result="effect1_dropShadow_194_19"/>
<feBlend mode="normal" in="SourceGraphic" in2="effect1_dropShadow_194_19" result="shape"/>
</filter>
<filter id="filter1_d_194_19" x="40.9258" y="77.1257" width="127.647" height="140.18" filterUnits="userSpaceOnUse" color-interpolation-filters="sRGB">
<feFlood flood-opacity="0" result="BackgroundImageFix"/>
<feColorMatrix in="SourceAlpha" type="matrix" values="0 0 0 0 0 0 0 0 0 0 0 0 0 0 0 0 0 0 127 0" result="hardAlpha"/>
<feOffset dy="4"/>
<feGaussianBlur stdDeviation="2"/>
<feComposite in2="hardAlpha" operator="out"/>
<feColorMatrix type="matrix" values="0 0 0 0 0 0 0 0 0 0 0 0 0 0 0 0 0 0 0.25 0"/>
<feBlend mode="normal" in2="BackgroundImageFix" result="effect1_dropShadow_194_19"/>
<feBlend mode="normal" in="SourceGraphic" in2="effect1_dropShadow_194_19" result="shape"/>
</filter>
<linearGradient id="paint0_linear_194_19" x1="241.04" y1="176.875" x2="237.142" y2="182.19" gradientUnits="userSpaceOnUse">
<stop stop-color="#3F8387"/>
<stop offset="1" stop-color="#469C94"/>
</linearGradient>
<linearGradient id="paint1_linear_194_19" x1="177.362" y1="214.869" x2="171.317" y2="217.495" gradientUnits="userSpaceOnUse">
<stop stop-color="#3F8387"/>
<stop offset="1" stop-color="#469C94"/>
</linearGradient>
<linearGradient id="paint2_linear_194_19" x1="199.962" y1="43.4357" x2="127.92" y2="152.14" gradientUnits="userSpaceOnUse">
<stop stop-color="#00ABBE"/>
<stop offset="1" stop-color="#061E5F"/>
</linearGradient>
<linearGradient id="paint3_linear_194_19" x1="94.6919" y1="51.5423" x2="99.2995" y2="209.424" gradientUnits="userSpaceOnUse">
<stop stop-color="#ED6807"/>
<stop offset="1" stop-color="#B33803"/>
</linearGradient>
</defs>
</svg>
