<svg width="20" height="20" viewBox="0 0 20 20" fill="none" xmlns="http://www.w3.org/2000/svg">
<path d="M11.8583 10.0033C11.8583 10.4974 11.6621 10.9712 11.3129 11.3206C10.9636 11.67 10.4899 11.8664 9.99583 11.8667C9.50165 11.8667 9.0277 11.6704 8.67826 11.3209C8.32881 10.9715 8.1325 10.4975 8.1325 10.0033C8.1325 9.50929 8.3287 9.03547 8.67796 8.68605C9.02723 8.33663 9.50096 8.14022 9.995 8.14C10.4892 8.14 10.9631 8.33632 11.3126 8.68576C11.662 9.0352 11.8583 9.50915 11.8583 10.0033ZM14.065 1.095C12.9433 1.095 11.4758 1.895 9.99167 3.28C8.50833 1.9025 7.04 1.11167 5.91917 1.11167C5.5775 1.11167 5.26667 1.18917 4.9975 1.34333C3.85167 2.00417 3.595 4.06333 4.18667 6.6475C1.65 7.43083 0 8.68333 0 10.0033C0 11.3283 1.65833 12.5842 4.2025 13.3617C3.61583 15.9558 3.8775 18.0183 5.02583 18.6783C5.2925 18.8342 5.60083 18.9075 5.94417 18.9075C7.065 18.9075 8.53333 18.1075 10.0175 16.7208C11.5008 18.0992 12.9692 18.89 14.09 18.89C14.4317 18.89 14.7425 18.815 15.0117 18.6608C16.1567 18.0008 16.4142 15.9417 15.8225 13.3567C18.35 12.58 20 11.325 20 10.0033C20 8.67833 18.3417 7.4225 15.7975 6.64333C16.3842 4.05167 16.1225 1.9875 14.9742 1.32667C14.7092 1.17333 14.4017 1.09583 14.065 1.095ZM14.0608 2.00333V2.00833C14.2483 2.00833 14.3992 2.045 14.5258 2.11417C15.0808 2.4325 15.3217 3.64333 15.1342 5.20083C15.0892 5.58417 15.0158 5.98833 14.9258 6.40083C14.1258 6.20417 13.2542 6.05333 12.3367 5.95583C11.7867 5.20167 11.2158 4.51667 10.6408 3.91667C11.9675 2.68333 13.2133 2.00667 14.0617 2.00417L14.0608 2.00333ZM5.91917 2.02C6.7625 2.02 8.01417 2.69333 9.34417 3.92C8.7725 4.52 8.2025 5.20083 7.66083 5.955C6.73833 6.0525 5.86583 6.20333 5.06667 6.40333C4.97333 5.995 4.90417 5.6 4.855 5.22C4.66333 3.66333 4.9 2.45333 5.45 2.13083C5.60833 2.05583 5.78333 2.02417 5.91917 2.02ZM9.9875 4.56167C10.3667 4.95167 10.7458 5.38833 11.1208 5.865C10.7542 5.84833 10.3792 5.83667 10 5.83667C9.61667 5.83667 9.2375 5.845 8.86667 5.865C9.23333 5.38833 9.6125 4.9525 9.9875 4.56167ZM10 6.75C10.6167 6.75 11.2308 6.77833 11.835 6.8275C12.1733 7.3125 12.5033 7.83 12.8208 8.3775C13.1308 8.91083 13.4125 9.4525 13.6692 9.99917C13.4125 10.545 13.1308 11.0908 12.825 11.6242C12.5083 12.1742 12.1808 12.6975 11.8417 13.1825C11.235 13.235 10.62 13.2642 10 13.2642C9.38333 13.2642 8.76917 13.235 8.165 13.1867C7.82667 12.7017 7.49667 12.1833 7.17917 11.6367C6.86917 11.1033 6.5875 10.5617 6.33083 10.015C6.58333 9.4675 6.86917 8.92083 7.175 8.38667C7.49167 7.83667 7.81917 7.315 8.15833 6.83C8.765 6.77667 9.38 6.74833 10 6.74833V6.75ZM6.97083 6.96167C6.77083 7.27583 6.57083 7.5975 6.38417 7.92833C6.19667 8.25333 6.02167 8.58 5.855 8.90667C5.63417 8.36 5.44667 7.815 5.29167 7.28417C5.825 7.15917 6.3875 7.0475 6.97083 6.96167ZM13.0208 6.96167C13.6 7.0475 14.1583 7.15333 14.6925 7.28417C14.5425 7.81083 14.355 8.3525 14.1425 8.895C13.9758 8.57 13.8008 8.2425 13.6092 7.91667C13.4217 7.59 13.2217 7.27167 13.0217 6.96167H13.0208ZM15.5733 7.52417C15.9767 7.64917 16.36 7.78833 16.7192 7.93917C18.1625 8.55583 19.0958 9.3625 19.0958 10.0025C19.0917 10.6425 18.1583 11.4525 16.715 12.065C16.365 12.215 15.9817 12.35 15.5858 12.4758C15.3525 11.6775 15.0475 10.8458 14.6692 9.9925C15.0442 9.145 15.3442 8.3175 15.5733 7.5225V7.52417ZM4.41083 7.5275C4.6425 8.3275 4.94833 9.15833 5.3275 10.0108C4.9525 10.8583 4.65083 11.6858 4.4225 12.4808C4.01917 12.3558 3.63583 12.2158 3.28083 12.0642C1.8375 11.45 0.904167 10.6425 0.904167 10.0025C0.904167 9.3625 1.8375 8.55083 3.28083 7.93917C3.63083 7.78917 4.01417 7.65417 4.41083 7.5275ZM14.1425 11.0942C14.3633 11.6417 14.5508 12.1875 14.7058 12.7175C14.1725 12.8483 13.6092 12.9592 13.0258 13.0425C13.2258 12.73 13.4258 12.4075 13.6133 12.0775C13.8008 11.7525 13.975 11.4208 14.1425 11.0942ZM5.855 11.1108C6.02167 11.4375 6.19667 11.7633 6.38833 12.09C6.58 12.415 6.77583 12.7333 6.97583 13.0425C6.39667 12.9575 5.83833 12.8508 5.30417 12.7208C5.45417 12.1958 5.6425 11.6525 5.85417 11.11L5.855 11.1108ZM14.9333 13.6C15.0267 14.0108 15.1 14.4067 15.145 14.7858C15.3367 16.3425 15.1 17.5525 14.55 17.8758C14.4275 17.9508 14.2683 17.9825 14.0808 17.9825C13.2375 17.9825 11.9858 17.31 10.6558 16.0825C11.2275 15.4825 11.7975 14.8025 12.3392 14.0492C13.2617 13.9508 14.1342 13.8 14.9333 13.6ZM5.075 13.6083C5.875 13.8033 6.74667 13.9542 7.66417 14.0517C8.21417 14.8058 8.785 15.4908 9.36 16.09C8.03083 17.3258 6.78333 18.0025 5.935 18.0025C5.75167 17.9983 5.59667 17.9608 5.47417 17.8925C4.91917 17.5758 4.67833 16.3642 4.86583 14.8067C4.91083 14.4233 4.985 14.02 5.075 13.6083ZM8.875 14.1417C9.24167 14.1583 9.61667 14.17 9.99583 14.17C10.3792 14.17 10.7583 14.1617 11.1292 14.1417C10.7625 14.6183 10.3833 15.0542 10.0083 15.4458C9.62917 15.0542 9.25 14.6183 8.875 14.1417Z" fill="#61DAFB"/>
</svg>
